HIERARCHY
ROOT Hips
{
  OFFSET 8.23771 95.6515 -326.083
  CHANNELS 6 Xposition Yposition Zposition Zrotation Xrotation Yrotation
  JOINT ToSpine
  {
    OFFSET -0.0105055 1.38907 -7.13956
    CHANNELS 3 Zrotation Xrotation Yrotation
    JOINT Spine
    {
      OFFSET 0.0105055 10 1
      CHANNELS 3 Zrotation Xrotation Yrotation
      JOINT Spine1
      {
        OFFSET 0 12 1.60637
        CHANNELS 3 Zrotation Xrotation Yrotation
        JOINT Neck
        {
          OFFSET 0 27 2.26658
          CHANNELS 3 Zrotation Xrotation Yrotation
          JOINT Head
          {
            OFFSET 0 9 2.12705
            CHANNELS 3 Zrotation Xrotation Yrotation
            End Site
            {
              OFFSET 0 11 2
            }
          }
        }
        JOINT LeftShoulder
        {
          OFFSET 8 19.6109 2.86452
          CHANNELS 3 Zrotation Xrotation Yrotation
          JOINT LeftArm
          {
            OFFSET 12 1 0.681055
            CHANNELS 3 Zrotation Xrotation Yrotation
            JOINT LeftForeArm
            {
              OFFSET 19 0 -1.52608
              CHANNELS 3 Zrotation Xrotation Yrotation
              JOINT LeftHand
              {
                OFFSET 23 0 0
                CHANNELS 3 Zrotation Xrotation Yrotation
                End Site
                {
                  OFFSET 10 0 0
                }
              }
            }
          }
        }
        JOINT RightShoulder
        {
          OFFSET -8 19.6109 2.86452
          CHANNELS 3 Zrotation Xrotation Yrotation
          JOINT RightArm
          {
            OFFSET -12 1 0.681055
            CHANNELS 3 Zrotation Xrotation Yrotation
            JOINT RightForeArm
            {
              OFFSET -19 0 -1.52608
              CHANNELS 3 Zrotation Xrotation Yrotation
              JOINT RightHand
              {
                OFFSET -23 0 0
                CHANNELS 3 Zrotation Xrotation Yrotation
                End Site
                {
                  OFFSET -10 0 0
                }
              }
            }
          }
        }
      }
    }
  }
  JOINT LeftUpLeg
  {
    OFFSET 9 -7.17245 0
    CHANNELS 3 Zrotation Xrotation Yrotation
    JOINT LeftLeg
    {
      OFFSET 0 -44.1113 0
      CHANNELS 3 Zrotation Xrotation Yrotation
      JOINT LeftFoot
      {
        OFFSET 0 -36.1829 0
        CHANNELS 3 Zrotation Xrotation Yrotation
        JOINT LeftToeBase
        {
          OFFSET 0 -4.84184 13
          CHANNELS 3 Zrotation Xrotation Yrotation
          End Site
          {
            OFFSET 0 1 6
          }
        }
      }
    }
  }
  JOINT RightUpLeg
  {
    OFFSET -9 -7.17245 0
    CHANNELS 3 Zrotation Xrotation Yrotation
    JOINT RightLeg
    {
      OFFSET 0 -44.0551 0
      CHANNELS 3 Zrotation Xrotation Yrotation
      JOINT RightFoot
      {
        OFFSET 0 -36.1469 0
        CHANNELS 3 Zrotation Xrotation Yrotation
        JOINT RightToeBase
        {
          OFFSET 0 -4.92256 13
          CHANNELS 3 Zrotation Xrotation Yrotation
          End Site
          {
            OFFSET 0 1 6
          }
        }
      }
    }
  }
}
MOTION
Frames:	8
Frame Time:	0.0333333
-8.85164 97.001 -102.883 -4.01027 -6.77905 2.12211 0 0 0 15.7103 6.67672 2.5165 -11.6095 3.47301 5.49343 4.1739 16.1673 -3.13303 0.476555 -3.97501 -1.48941 -35.5287 3.6131 -5.1655 -38.8118 14.5522 1.89772 -4.18174 -16.3627 -8.72646 -8.56558 0.179592 -2.39779 22.791 5.80183 16.2535 41.6806 13.9377 11.4583 1.56182 -2.99894 17.5587 1.93232 0.063453 3.76123 4.60674 -18.6757 5.1092 -1.43066 11.4691 -4.10608 7.87256 0.226024 -0.0155526 0.359138 -3.78552 -0.540061 7.38366 9.82871 -7.24129 1.48271 16.5955 -0.988497 -17.6851 -13.4813 -2.10677 4.2681 -16.1572 -4.45228 
-8.54364 95.9893 -99.2324 -5.11272 -6.59814 0.82462 0 0 0 17.1439 5.90963 3.31359 -11.7544 3.43215 6.11984 4.00535 16.3463 -3.10247 0.667623 -4.23002 -1.56252 -36.2404 3.68515 -5.18587 -38.636 16.2755 2.36317 -4.58733 -19.3394 -5.72389 -10.3958 0.1411 -1.55096 23.101 5.96756 16.6085 40.1394 14.8764 12.3125 2.03448 -4.21506 17.7132 2.23837 0.0836369 4.27918 5.60565 -19.5643 5.88431 -1.84395 5.65041 -2.43532 6.04232 -0.840393 0.0443551 0.462125 -2.00472 -1.49171 8.31434 12.3679 -7.54261 1.0813 16.6007 0.291479 -17.5694 -16.1042 -2.50477 4.08283 -15.3966 -4.8963 
-8.25391 95.0357 -95.5801 -5.77677 -6.00799 -0.0700238 0 0 0 17.9052 4.68925 3.88751 -11.9874 3.77316 6.53053 4.20956 15.7113 -3.16032 0.574084 -3.70113 -1.53406 -36.4962 3.68351 -5.12849 -39.0532 15.4036 3.4099 -4.08905 -17.4924 -3.94307 -9.66759 0.168966 -1.99783 23.6628 6.06677 16.5796 39.1553 14.9198 13.25 1.91044 -3.73661 17.471 2.35713 0.0870483 4.22933 5.83098 -20.9477 6.03093 -1.69359 3.21605 -0.0397971 5.58 -2.03292 0.0990811 0.419238 -1.74783 -1.36108 8.66238 14.7913 -7.97186 1.54503 15.6381 0.420542 -22.2857 -16.1429 -3.20001 4.90062 -19.2626 -6.50716 
-7.93395 94.1823 -91.9599 -5.81909 -5.74613 -1.39229 0 0 0 18.2784 4.03813 4.34988 -12.8129 4.20206 7.14924 4.61282 15.0737 -3.11399 0.502522 -3.50914 -1.31865 -36.4063 3.52936 -4.78626 -39.7121 13.9384 3.83137 -3.67042 -16.1919 -1.92093 -10.9029 0.192478 -2.01667 24.0593 6.24463 16.9052 39.2458 14.2874 13.3126 1.50089 -2.58853 17.3063 2.28492 0.0871841 4.3697 5.83196 -21.2193 6.18528 -1.66196 3.46497 1.09855 5.50475 -2.91032 0.139944 0.663778 -2.2934 -2.33966 8.24459 17.5298 -8.40337 1.43725 14.7998 1.35846 -24.753 -16.9245 -3.73973 5.24051 -21.1971 -7.75874 
-7.57545 94.0718 -88.5507 -4.72515 -5.64625 -2.86543 0 0 0 16.7976 3.85046 5.07533 -12.769 4.83877 8.03954 4.34352 14.3105 -3.20845 0.996631 -3.41396 -1.64972 -37.3509 3.54968 -4.64724 -39.7141 12.5076 4.49301 -3.45057 -15.8971 -1.20618 -11.2474 0.153435 -1.55813 23.0864 5.96206 16.5996 41.15 14.1343 12.9562 1.46584 -2.39406 16.9895 2.28726 0.0860495 4.30848 4.9263 -20.6525 5.96177 -1.73734 5.52742 1.22754 4.4739 0.666262 -0.0260258 0.742948 -2.5522 -2.649 6.23833 20.7475 -9.27451 1.60879 12.1867 3.52267 -27.2374 -14.155 -3.44586 6.13122 -25.8136 -8.54584 
-7.18497 94.7954 -84.9011 -3.27445 -5.03748 -4.43574 0 0 0 15.8879 1.88265 5.61569 -14.5192 6.81334 9.05191 5.5989 13.0123 -3.46373 0.6535 -2.47099 -1.36983 -36.7289 3.50136 -4.65702 -40.5948 12.0164 5.48857 -3.38857 -16.4163 -1.48821 -11.1339 0.116013 -1.19022 23.5594 6.1232 16.8283 42.3783 14.4645 12.3102 1.81783 -2.95644 16.3901 3.32384 0.147812 5.09113 3.65638 -20.453 5.7711 -1.59961 6.35034 2.6839 0.834686 5.25422 -0.0382993 0.353343 -0.451416 -1.37699 3.86459 23.1295 -9.44089 0.502339 9.67946 5.83121 -22.3237 -12.0817 -2.39241 6.72027 -26.1942 -4.25713 
-6.83881 95.3177 -80.9729 -1.54876 -4.7812 -5.42651 0 0 0 14.5837 0.591574 5.65639 -16.2206 7.75307 9.56254 6.85355 12.0599 -3.57884 0.294142 -1.37611 -0.948824 -35.7492 3.30615 -4.38833 -41.491 11.6457 6.37902 -3.39034 -16.5287 -2.33463 -11.1908 0.112691 -1.15022 24.0189 6.1651 16.6752 44.3863 15.0127 11.279 1.79758 -2.19749 15.6341 2.24828 0.0861244 4.38693 2.13063 -20.8409 5.65413 -1.89594 10.2247 4.3603 -1.27025 6.42174 0.0712627 0.501405 4.56075 -2.87385 1.47618 24.8609 -9.58192 -0.333466 9.06218 7.72446 -19.424 -8.23658 -1.41204 7.52476 -29.3005 -4.14435 
-6.46588 95.565 -76.9742 -0.391192 -4.40057 -6.03337 0 0 0 13.4341 -1.46684 5.79595 -16.6668 8.79799 9.63093 7.49326 11.4935 -3.53391 0.230005 -0.946282 -0.664938 -34.9416 3.22979 -4.36128 -42.2198 11.1753 6.19408 -3.18908 -16.2548 -2.0814 -11.1646 0.117763 -1.20483 23.7665 6.0986 16.6181 47.1323 15.1062 9.46398 1.84746 -1.70004 15.0002 2.4728 0.0910659 4.21751 1.32975 -21.341 5.92452 -3.08398 15.1789 3.47352 0.198796 7.55246 -0.0131212 0.544977 2.07792 -2.6514 -0.536219 24.1085 -9.48202 -0.63248 13.0583 7.30854 -22.4699 -2.91763 -0.579677 9.55656 -36.0377 -2.99463 
